<svg width="100" height="100" viewBox="0 0 100 100" fill="none" xmlns="http://www.w3.org/2000/svg">
<path fill-rule="evenodd" clip-rule="evenodd" d="M50 100C77.6142 100 100 77.6142 100 50C100 22.3858 77.6142 0 50 0C22.3858 0 0 22.3858 0 50C0 77.6142 22.3858 100 50 100ZM37.2214 25.2798C40.128 24.116 43.0704 23.4289 46.8806 23.0243C47.1277 22.998 48.6696 22.9921 50.3069 23.0112C53.4142 23.0475 54.856 23.1978 57.2718 23.7373C67.493 26.0198 75.4941 32.8421 77.7804 41.2244C79.5672 47.775 78.0347 54.029 73.2147 59.8561C71.1719 62.3257 67.6402 65.5878 63.8643 68.4924C59.853 71.5782 54.3576 75.2249 51.0794 76.9765C48.7082 78.2434 47.4745 78.3319 47.2041 77.2545C47.1621 77.0873 47.2609 76.1267 47.4267 75.0892C47.87 72.315 47.8284 71.1562 47.2655 70.5932C46.6436 69.9714 46.0211 69.7696 43.0611 69.2303C40.3633 68.7387 37.0997 67.6403 34.5986 66.3821C27.6787 62.9009 22.8591 57.0944 21.4426 50.5321C19.2053 40.1669 25.6 29.9329 37.2214 25.2798ZM34.0224 40.2868C33.9019 40.0889 33.6518 39.8487 33.4668 39.7531C32.781 39.3985 31.9137 39.6474 31.4683 40.327C31.2809 40.6128 31.263 41.0656 31.2304 46.3143C31.2111 49.4373 31.2287 52.2688 31.2696 52.6066C31.3315 53.1168 31.416 53.2925 31.769 53.6457L32.1941 54.0707L35.5493 54.0703C38.679 54.0699 38.9288 54.0551 39.2642 53.8505C40.3578 53.1838 40.102 51.4964 38.8549 51.1498C38.6351 51.0888 37.5075 51.0386 36.3489 51.0383L34.2426 51.0376L34.2422 45.842C34.2418 40.887 34.2316 40.6297 34.0224 40.2868ZM44.1328 40.2868C44.0123 40.0889 43.7622 39.8487 43.5772 39.7531C43.1213 39.5173 42.5732 39.535 42.1398 39.7993C42.0158 39.8749 41.9135 39.9319 41.8291 40.0086C41.4187 40.3814 41.4322 41.2208 41.4322 46.9449V53.1984L41.8683 53.6346C42.2639 54.0301 42.3592 54.0707 42.8926 54.0707C43.426 54.0707 43.5214 54.0301 43.9169 53.6346L44.353 53.1984L44.3526 46.9224C44.3522 40.8958 44.3435 40.6321 44.1328 40.2868ZM52.066 44.0401C49.7859 40.9336 48.9601 39.889 48.6789 39.7556C48.182 39.5198 47.7427 39.5338 47.3074 39.7993C47.1833 39.8749 47.081 39.9319 46.9966 40.0086C46.5862 40.3814 46.5998 41.2208 46.5998 46.9449V53.1984L47.0498 53.6484C47.4885 54.0871 47.5158 54.0971 48.1354 54.0457C48.6913 53.9996 48.8183 53.9416 49.1459 53.5842L49.5205 53.1753V49.4104C49.5205 47.3396 49.5585 45.6468 49.6048 45.6486C49.6511 45.6503 51.0034 47.4528 52.6098 49.6539C54.3106 51.9845 55.6714 53.7426 55.8676 53.863C56.5937 54.3086 57.6228 54.0116 57.9829 53.2525C58.151 52.8985 58.1705 52.2275 58.1705 46.8304C58.1705 41.3632 58.181 40.6186 57.8199 40.1796C57.752 40.097 57.671 40.0253 57.5744 39.935C56.9947 39.3936 55.862 39.5495 55.3968 40.2347C55.2137 40.5045 55.1881 40.91 55.1374 44.341L55.0812 48.148L52.066 44.0401ZM68.8614 41.1072C68.8614 40.497 68.647 40.1115 68.1344 39.7989C67.8003 39.5952 67.5534 39.5803 64.5738 39.584C61.0254 39.5883 60.8174 39.6229 60.4199 40.2748C60.2001 40.6354 60.1934 40.8278 60.1934 46.8249C60.1934 52.7552 60.2023 53.018 60.4128 53.3631C60.8316 54.0501 60.9542 54.0707 64.626 54.0707H67.9472L68.3447 53.7056C69.0404 53.0665 69.0311 51.9799 68.3251 51.4135C67.9002 51.0726 67.6172 51.0376 65.2899 51.0376H63.2257V49.6895V48.3415L65.5006 48.341C67.5573 48.3407 67.8099 48.3197 68.1344 48.1217C68.3318 48.0013 68.5761 47.7765 68.6774 47.6221C68.9479 47.2092 68.9151 46.3997 68.6106 45.972C68.1869 45.3771 67.8566 45.3084 65.4199 45.3084H63.2257V43.9603V42.6123L65.4444 42.612C67.3347 42.6119 67.7201 42.5828 68.0483 42.4154C68.6128 42.1276 68.8614 41.7277 68.8614 41.1072Z" fill="black"/>
</svg>
