<svg width="100" height="100" viewBox="0 0 100 100" fill="none" xmlns="http://www.w3.org/2000/svg">
<path fill-rule="evenodd" clip-rule="evenodd" d="M50 100C77.6142 100 100 77.6142 100 50C100 22.3858 77.6142 0 50 0C22.3858 0 0 22.3858 0 50C0 77.6142 22.3858 100 50 100ZM34.5868 24.1414C36.4339 23.5833 38.043 23.2887 40.6716 23.0275C41.4995 22.9452 45.1612 23.0606 46.2032 23.2018C55.7431 24.4945 63.388 30.4221 65.5503 38.2026C65.8669 39.3418 66.1767 41.3454 66.1777 42.26L66.1784 42.9417L67.254 43.1639C67.8456 43.2861 68.9657 43.5954 69.7432 43.8511C75.3791 45.7046 79.7638 49.726 81.2717 54.424C81.7145 55.8034 81.838 56.6485 81.838 58.2962C81.838 59.999 81.7169 60.7835 81.2116 62.3527C80.3067 65.1621 78.5 67.5878 75.6644 69.7993L75.2579 70.1163L76.6185 72.8513C77.5754 74.7746 77.9792 75.7146 77.9792 76.0189C77.9792 76.9951 77.1861 77.8837 76.2174 77.9928C75.7402 78.0467 75.1862 77.8382 70.741 75.9329L65.7956 73.813L64.569 73.9524C61.3402 74.3196 57.7291 73.9398 54.6481 72.909C49.3386 71.1325 45.1644 67.4562 43.4996 63.0902L43.2183 62.3527L41.7606 62.2607C39.6623 62.1283 37.4159 61.8248 36.0005 61.4825C35.3244 61.3189 34.7007 61.1851 34.6144 61.185C34.5281 61.1849 32.8339 61.8763 30.8497 62.7214C28.7297 63.6243 27.0786 64.258 26.8458 64.258C26.2819 64.258 25.6528 63.9246 25.2704 63.4232C25.0017 63.0709 24.9424 62.8656 24.947 62.3035C24.952 61.6891 25.0658 61.3903 26.0055 59.5254L27.0584 57.4357L26.1379 56.6981C25.6317 56.2925 24.6717 55.3903 24.0048 54.6934C19.6752 50.169 18.046 44.2386 19.5444 38.4585C21.2483 31.8868 26.9674 26.4434 34.5868 24.1414ZM60.9208 37.0034C58.2615 31.5387 52.1088 27.7241 44.8073 27.013C37.4088 26.2924 29.7177 29.2838 25.8728 34.3771C23.7681 37.1654 22.9731 39.4725 22.9883 42.7462C22.9983 44.8767 23.3013 46.2296 24.1871 48.0997C25.3063 50.4624 27.3339 52.7987 29.7294 54.4855C30.4014 54.9588 31.0778 55.5339 31.2325 55.7637C31.5843 56.2861 31.6009 57.1091 31.274 57.8288L31.0398 58.3448L31.3075 58.241C31.4547 58.1839 32.1007 57.9069 32.743 57.6254C34.1294 57.0176 34.5116 56.9938 35.9906 57.4225C37.1695 57.7643 39.7977 58.178 41.4869 58.2878L42.5482 58.3569L42.6348 57.4046C42.9595 53.837 44.4896 50.8248 47.3302 48.1614C50.6569 45.042 55.2105 43.1558 60.4643 42.7211L62.2689 42.5718L62.1846 41.6448C62.0252 39.8922 61.6424 38.4863 60.9208 37.0034ZM32.8911 36.9021C32.821 36.0575 33.1065 35.4616 33.772 35.0627C34.3771 34.6999 34.9551 34.6776 35.6434 34.9902C36.6525 35.4484 37.0311 36.7963 36.4259 37.7755C36.1215 38.2681 35.3727 38.6826 34.7793 38.687C34.2939 38.6907 33.4734 38.2694 33.1814 37.8667C33.0471 37.6814 32.921 37.2626 32.8911 36.9021ZM48.6295 36.8514C48.5723 35.9707 48.8635 35.4173 49.5852 35.0358C50.2234 34.6982 50.7079 34.6859 51.3777 34.9902C52.0487 35.2949 52.4393 35.9323 52.4393 36.7229C52.4393 37.5136 52.0487 38.1509 51.3777 38.4557C50.7261 38.7517 50.2706 38.7481 49.6532 38.442C48.9584 38.0978 48.6826 37.6692 48.6295 36.8514ZM74.4961 51.0174C72.2824 48.9144 69.2842 47.491 65.7482 46.8638C64.1895 46.5874 61.0003 46.5223 59.5106 46.7366C53.9055 47.5425 49.3711 50.4167 47.4789 54.3626C46.7836 55.8126 46.5836 56.7048 46.5836 58.3576C46.5836 60.0105 46.7836 60.9026 47.4789 62.3527C48.0686 63.5824 48.8228 64.5857 49.9936 65.6978C52.4085 67.9918 55.7243 69.4625 59.639 69.9761C61.4076 70.2082 62.7844 70.2067 64.6914 69.9705C65.5259 69.8672 66.3264 69.8188 66.4702 69.863C66.6139 69.9071 67.7549 70.3846 69.0057 70.9241C70.2564 71.4636 71.4011 71.952 71.5495 72.0094C71.7918 72.1033 71.7627 71.9987 71.264 70.9825C70.7925 70.0218 70.7164 69.7654 70.7596 69.2829C70.831 68.4856 71.1637 68.09 72.5385 67.1686C74.7097 65.7134 75.9615 64.3755 76.9333 62.4707C77.6564 61.0538 77.9111 59.9623 77.9076 58.2962C77.9044 56.7091 77.6945 55.7885 77.0108 54.3626C76.4211 53.1328 75.6668 52.1295 74.4961 51.0174ZM54.5299 54.5525C54.4744 53.6987 54.7618 53.122 55.4353 52.7358C56.018 52.4018 56.6092 52.3875 57.2781 52.6913C58.7036 53.3387 58.7036 55.5093 57.2781 56.1568C56.6264 56.4528 56.171 56.4492 55.5536 56.1431C54.8588 55.7989 54.583 55.3703 54.5299 54.5525ZM66.3265 54.6033C66.2565 53.7586 66.5419 53.1627 67.2074 52.7638C67.8126 52.4011 68.3906 52.3787 69.0788 52.6913C70.0879 53.1496 70.4665 54.4974 69.8614 55.4766C69.557 55.9692 68.8081 56.3837 68.2148 56.3881C67.7294 56.3918 66.9088 55.9706 66.6169 55.5678C66.4825 55.3825 66.3564 54.9637 66.3265 54.6033Z" fill="black"/>
</svg>
